<mxfile host="app.diagrams.net" modified="2022-05-09T09:55:10.344Z" agent="5.0 (Windows NT 10.0; Win64; x64) AppleWebKit/537.36 (KHTML, like Gecko) Chrome/98.0.4758.102 Safari/537.36 Edg/98.0.1108.62" etag="FFhwY8iFgD-iOHdrJkB6" version="18.0.2" type="github">
  <diagram name="Page-1" id="b98fa263-6416-c6ec-5b7d-78bf54ef71d0">
    <mxGraphModel dx="1422" dy="794" grid="1" gridSize="10" guides="1" tooltips="1" connect="1" arrows="1" fold="1" page="1" pageScale="1.5" pageWidth="1169" pageHeight="826" background="none" math="0" shadow="0">
      <root>
        <mxCell id="0" style=";html=1;" />
        <mxCell id="1" style=";html=1;" parent="0" />
        <mxCell id="YeRdr_v14mPwPo_mnSce-10" style="edgeStyle=orthogonalEdgeStyle;rounded=0;orthogonalLoop=1;jettySize=auto;html=1;" parent="1" source="303ed1de8c2c98b4-4" target="YeRdr_v14mPwPo_mnSce-9" edge="1">
          <mxGeometry relative="1" as="geometry" />
        </mxCell>
        <mxCell id="YeRdr_v14mPwPo_mnSce-11" style="edgeStyle=orthogonalEdgeStyle;rounded=0;orthogonalLoop=1;jettySize=auto;html=1;" parent="1" source="303ed1de8c2c98b4-4" target="YeRdr_v14mPwPo_mnSce-3" edge="1">
          <mxGeometry relative="1" as="geometry">
            <Array as="points">
              <mxPoint x="737" y="332" />
              <mxPoint x="457" y="332" />
            </Array>
          </mxGeometry>
        </mxCell>
        <mxCell id="YeRdr_v14mPwPo_mnSce-14" style="edgeStyle=orthogonalEdgeStyle;rounded=0;orthogonalLoop=1;jettySize=auto;html=1;entryX=0.5;entryY=0;entryDx=0;entryDy=0;" parent="1" source="303ed1de8c2c98b4-4" target="YeRdr_v14mPwPo_mnSce-12" edge="1">
          <mxGeometry relative="1" as="geometry">
            <Array as="points">
              <mxPoint x="737" y="332" />
              <mxPoint x="1017" y="332" />
            </Array>
          </mxGeometry>
        </mxCell>
        <mxCell id="303ed1de8c2c98b4-4" value="&lt;b&gt;&lt;font style=&quot;font-size: 19px;&quot;&gt;MIMIC-III Waveform Matched Subset Database&lt;/font&gt;&lt;/b&gt;" style="whiteSpace=wrap;html=1;rounded=1;shadow=1;strokeWidth=1;fontSize=16;align=center;fillColor=#f5f5f5;strokeColor=#666666;" parent="1" vertex="1">
          <mxGeometry x="482" y="250" width="510" height="45" as="geometry" />
        </mxCell>
        <mxCell id="YeRdr_v14mPwPo_mnSce-40" style="edgeStyle=orthogonalEdgeStyle;rounded=0;orthogonalLoop=1;jettySize=auto;html=1;fontSize=19;" parent="1" source="YeRdr_v14mPwPo_mnSce-3" target="YeRdr_v14mPwPo_mnSce-36" edge="1">
          <mxGeometry relative="1" as="geometry" />
        </mxCell>
        <mxCell id="YeRdr_v14mPwPo_mnSce-3" value="&lt;span style=&quot;font-size: 19px;&quot;&gt;&lt;b&gt;Matched Waveforms&lt;/b&gt;&lt;/span&gt;" style="whiteSpace=wrap;html=1;rounded=1;shadow=1;strokeWidth=1;fontSize=16;align=center;fillColor=#f5f5f5;strokeColor=#666666;" parent="1" vertex="1">
          <mxGeometry x="327" y="370" width="260" height="45" as="geometry" />
        </mxCell>
        <mxCell id="YeRdr_v14mPwPo_mnSce-9" value="&lt;font style=&quot;&quot;&gt;&lt;span style=&quot;font-size: 19px;&quot;&gt;&lt;b&gt;Numerics&lt;/b&gt;&lt;/span&gt;&lt;/font&gt;" style="whiteSpace=wrap;html=1;rounded=1;shadow=1;strokeWidth=1;fontSize=16;align=center;fillColor=#f5f5f5;strokeColor=#666666;" parent="1" vertex="1">
          <mxGeometry x="607" y="370" width="260" height="45" as="geometry" />
        </mxCell>
        <mxCell id="YeRdr_v14mPwPo_mnSce-12" value="&lt;b&gt;&lt;font style=&quot;font-size: 19px;&quot;&gt;Miscellaneous&lt;/font&gt;&lt;/b&gt;" style="whiteSpace=wrap;html=1;rounded=1;shadow=1;strokeWidth=1;fontSize=16;align=center;fillColor=#f5f5f5;strokeColor=#666666;" parent="1" vertex="1">
          <mxGeometry x="887" y="370" width="260" height="45" as="geometry" />
        </mxCell>
        <mxCell id="YeRdr_v14mPwPo_mnSce-36" value="Records" style="swimlane;fontStyle=1;childLayout=stackLayout;horizontal=1;startSize=26;horizontalStack=0;resizeParent=1;resizeParentMax=0;resizeLast=0;collapsible=1;marginBottom=0;align=center;fontSize=19;glass=1;" parent="1" vertex="1">
          <mxGeometry x="327" y="460" width="260" height="200" as="geometry" />
        </mxCell>
        <mxCell id="YeRdr_v14mPwPo_mnSce-37" value="&#xa;ABP&#xa;ECG -- II&#xa;ECG -- AVR&#xa;ECG -- V&#xa;EVG -- MCL&#xa;..." style="text;strokeColor=none;fillColor=none;spacingLeft=4;spacingRight=4;overflow=hidden;rotatable=0;points=[[0,0.5],[1,0.5]];portConstraint=eastwest;fontSize=19;glass=1;" parent="YeRdr_v14mPwPo_mnSce-36" vertex="1">
          <mxGeometry y="26" width="260" height="174" as="geometry" />
        </mxCell>
        <mxCell id="YeRdr_v14mPwPo_mnSce-41" style="edgeStyle=orthogonalEdgeStyle;rounded=0;orthogonalLoop=1;jettySize=auto;html=1;fontSize=19;" parent="1" target="YeRdr_v14mPwPo_mnSce-42" edge="1">
          <mxGeometry relative="1" as="geometry">
            <mxPoint x="737" y="415" as="sourcePoint" />
          </mxGeometry>
        </mxCell>
        <mxCell id="YeRdr_v14mPwPo_mnSce-42" value="Records" style="swimlane;fontStyle=1;childLayout=stackLayout;horizontal=1;startSize=26;horizontalStack=0;resizeParent=1;resizeParentMax=0;resizeLast=0;collapsible=1;marginBottom=0;align=center;fontSize=19;glass=1;" parent="1" vertex="1">
          <mxGeometry x="607" y="460" width="260" height="200" as="geometry" />
        </mxCell>
        <mxCell id="YeRdr_v14mPwPo_mnSce-43" value="HR&#xa;PULSE&#xa;ABP&#xa;ABP Sys&#xa;ABP Dias&#xa;ABP Mean&#xa;..." style="text;strokeColor=none;fillColor=none;spacingLeft=4;spacingRight=4;overflow=hidden;rotatable=0;points=[[0,0.5],[1,0.5]];portConstraint=eastwest;fontSize=19;glass=1;" parent="YeRdr_v14mPwPo_mnSce-42" vertex="1">
          <mxGeometry y="26" width="260" height="174" as="geometry" />
        </mxCell>
        <mxCell id="YeRdr_v14mPwPo_mnSce-44" style="edgeStyle=orthogonalEdgeStyle;rounded=0;orthogonalLoop=1;jettySize=auto;html=1;fontSize=19;" parent="1" target="YeRdr_v14mPwPo_mnSce-45" edge="1">
          <mxGeometry relative="1" as="geometry">
            <mxPoint x="1017" y="415" as="sourcePoint" />
          </mxGeometry>
        </mxCell>
        <mxCell id="YeRdr_v14mPwPo_mnSce-45" value="Files" style="swimlane;fontStyle=1;childLayout=stackLayout;horizontal=1;startSize=26;horizontalStack=0;resizeParent=1;resizeParentMax=0;resizeLast=0;collapsible=1;marginBottom=0;align=center;fontSize=19;glass=1;" parent="1" vertex="1">
          <mxGeometry x="887" y="460" width="260" height="85" as="geometry" />
        </mxCell>
        <mxCell id="YeRdr_v14mPwPo_mnSce-46" value="LICENSE.txt&#xa;SHA256SUM.txt" style="text;strokeColor=none;fillColor=none;spacingLeft=4;spacingRight=4;overflow=hidden;rotatable=0;points=[[0,0.5],[1,0.5]];portConstraint=eastwest;fontSize=19;glass=1;" parent="YeRdr_v14mPwPo_mnSce-45" vertex="1">
          <mxGeometry y="26" width="260" height="59" as="geometry" />
        </mxCell>
        <mxCell id="uIiQEnKQRVAijCHAwOKh-2" value="&lt;font color=&quot;#ff0000&quot; style=&quot;font-size: 19px;&quot; face=&quot;Helvetica&quot;&gt;PLETH&lt;/font&gt;" style="text;strokeColor=none;fillColor=none;html=1;fontSize=24;fontStyle=1;verticalAlign=middle;align=center;fontFamily=Courier New;" vertex="1" parent="1">
          <mxGeometry x="314" y="484" width="100" height="40" as="geometry" />
        </mxCell>
      </root>
    </mxGraphModel>
  </diagram>
</mxfile>
